<svg width="24" height="24" viewBox="0 0 24 24" fill="none" xmlns="http://www.w3.org/2000/svg">
<path d="M18.438 4.954H16.5C16.5 4.608 16.5 4.263 16.5 3.918C16.5 3.794 16.5 3.67 16.5 3.546C16.5 3.284 16.27 3.034 16 3.046C15.729 3.058 15.5 3.266 15.5 3.546C15.5 4.015 15.5 4.485 15.5 4.954H8.50001C8.50001 4.608 8.50001 4.263 8.50001 3.918C8.50001 3.794 8.50001 3.67 8.50001 3.546C8.50001 3.284 8.27001 3.034 8.00001 3.046C7.72901 3.058 7.50001 3.266 7.50001 3.546C7.50001 4.015 7.50001 4.485 7.50001 4.954H5.56201C4.18401 4.954 3.06201 6.076 3.06201 7.454V18.454C3.06201 19.833 4.18401 20.954 5.56201 20.954H18.437C19.816 20.954 20.937 19.833 20.937 18.454V7.454C20.938 6.076 19.816 4.954 18.438 4.954ZM5.56201 5.954H7.50001C7.50001 6.027 7.50001 6.101 7.50001 6.174C7.50001 6.298 7.50001 6.422 7.50001 6.546C7.50001 6.808 7.73001 7.058 8.00001 7.046C8.27101 7.034 8.50001 6.826 8.50001 6.546C8.50001 6.349 8.50001 6.152 8.50001 5.954H15.5C15.5 6.027 15.5 6.101 15.5 6.174C15.5 6.298 15.5 6.422 15.5 6.546C15.5 6.808 15.73 7.058 16 7.046C16.271 7.034 16.5 6.826 16.5 6.546C16.5 6.349 16.5 6.152 16.5 5.954H18.437C19.264 5.954 19.937 6.627 19.937 7.454V9.038H4.06201V7.454C4.06201 6.627 4.73501 5.954 5.56201 5.954ZM18.438 19.954H5.56201C4.73501 19.954 4.06201 19.281 4.06201 18.454V10.038H19.937V18.454C19.938 19.281 19.265 19.954 18.438 19.954Z" fill="#00BD7D"/>
</svg>
