<svg width="24" height="24" viewBox="0 0 24 24" fill="none" xmlns="http://www.w3.org/2000/svg">
<g clip-path="url(#clip0_121_280)">
<path d="M5.4475 11.7671C4.86786 10.7042 4.56001 9.51181 4.56001 8.27356C4.56001 4.23444 7.8374 0.96003 11.8805 0.96003C15.9236 0.96003 19.201 4.23444 19.201 8.27356C19.201 9.44537 18.9251 10.5768 18.4033 11.5969C18.2826 11.8329 18.376 12.1221 18.6121 12.2428C18.8481 12.3635 19.1373 12.2701 19.258 12.0341C19.8486 10.8794 20.161 9.59827 20.161 8.27356C20.161 3.70405 16.4536 3.05176e-05 11.8805 3.05176e-05C7.30743 3.05176e-05 3.60004 3.70405 3.60004 8.27356C3.60004 9.67341 3.94867 11.0237 4.60471 12.2267C4.73162 12.4595 5.02319 12.5453 5.25592 12.4183C5.48865 12.2914 5.57444 11.9999 5.44752 11.7671L5.4475 11.7671Z" fill="#00BD7D"/>
<path d="M5.34918 11.597C5.21729 11.367 4.92395 11.2875 4.69398 11.4194C4.46401 11.5513 4.38451 11.8446 4.5164 12.0746L11.1051 23.5627C11.4867 24.2277 12.2728 24.2277 12.6542 23.5628L19.1885 12.1694C19.3204 11.9394 19.2409 11.6461 19.0109 11.5142C18.781 11.3824 18.4877 11.4619 18.3558 11.6918L11.8797 22.9837L5.34918 11.597V11.597Z" fill="#00BD7D"/>
<path d="M14.3298 8.25536C14.3298 6.90417 13.2332 5.80856 11.8804 5.80856C10.5276 5.80856 9.43119 6.9041 9.43119 8.25536C9.43119 9.60663 10.5276 10.7022 11.8804 10.7022C13.2332 10.7022 14.3298 9.60656 14.3298 8.25536ZM15.2898 8.25536C15.2898 10.1369 13.7632 11.6622 11.8804 11.6622C9.99758 11.6622 8.47119 10.137 8.47119 8.25536C8.47119 6.37373 9.99758 4.84856 11.8804 4.84856C13.7632 4.84856 15.2898 6.37378 15.2898 8.25536Z" fill="#00BD7D"/>
</g>
<defs>
<clipPath id="clip0_121_280">
<rect width="24" height="24" fill="white"/>
</clipPath>
</defs>
</svg>
