<svg width="18" height="20" viewBox="0 0 18 20" fill="none" xmlns="http://www.w3.org/2000/svg">
<path d="M15.8068 4.5163H13.1339C13.3676 4.08382 13.5006 3.58922 13.5006 3.0641C13.5006 1.37454 12.126 0 10.4365 0C8.79496 0 7.45112 1.29761 7.37605 2.92091C7.33812 2.91952 7.3001 2.91845 7.26213 2.91845C6.1377 2.91845 5.10508 3.53863 4.57125 4.5163H1.41284C1.03494 4.5163 0.680081 4.66343 0.413928 4.93023C0.147033 5.19712 0 5.55188 0 5.92914V18.5872C0 19.3662 0.633806 20 1.41284 20H15.8069C16.5632 20 17.1785 19.3849 17.1785 18.6289V8.89484V8.01802V5.88787C17.1784 5.13156 16.5631 4.5163 15.8068 4.5163ZM15.8068 5.21182C16.1796 5.21182 16.4829 5.51511 16.4829 5.88787V6.82576C16.2832 6.71215 16.0525 6.64691 15.8068 6.64691H10.2531C10.291 6.47595 10.3148 6.30184 10.3228 6.12527C10.3606 6.12666 10.3984 6.12815 10.4365 6.12815C11.2902 6.12815 12.063 5.77691 12.6192 5.21182H15.8068ZM10.4365 0.695521C11.7425 0.695521 12.8051 1.75805 12.8051 3.06405C12.8051 4.37005 11.7425 5.43258 10.4365 5.43258C9.13044 5.43258 8.06791 4.37005 8.06791 3.06405C8.06791 1.75805 9.13048 0.695521 10.4365 0.695521ZM5.1029 5.00748C5.48618 4.16093 6.3337 3.61398 7.26213 3.61398C7.31619 3.61398 7.37016 3.61634 7.4239 3.62C7.63743 4.77962 8.50544 5.71232 9.62973 6.01955C9.62648 6.23377 9.59546 6.44387 9.5362 6.64687H4.988C4.92541 6.43228 4.89364 6.20985 4.89364 5.98288C4.89364 5.64253 4.96408 5.31429 5.1029 5.00748ZM0.905986 5.42168C1.04101 5.28633 1.22101 5.21177 1.41284 5.21177H4.29642C4.23155 5.4617 4.19817 5.71946 4.19817 5.98288C4.19817 6.20822 4.22316 6.4301 4.27115 6.64687H1.41284C1.01732 6.64687 0.695521 6.32489 0.695521 5.92909C0.695429 5.73764 0.770081 5.55754 0.905986 5.42168ZM16.4829 8.89479V18.6289H16.4829C16.4829 19.0014 16.1796 19.3045 15.8068 19.3045H1.41284C1.01732 19.3045 0.695521 18.9827 0.695521 18.5872V7.14634C0.905894 7.27089 1.15118 7.34239 1.41284 7.34239H15.8069C16.1797 7.34239 16.4829 7.64545 16.4829 8.01797V8.89479Z" fill="#00BD7D"/>
</svg>
