<svg width="20" height="20" viewBox="0 0 20 20" fill="none" xmlns="http://www.w3.org/2000/svg">
<path d="M14.1667 20H5.8375C5.35551 19.9995 4.8793 19.8951 4.44138 19.6937C4.00346 19.4924 3.61414 19.1989 3.3 18.8333C2.99098 18.4754 2.76282 18.055 2.63108 17.6008C2.49935 17.1467 2.46715 16.6694 2.53667 16.2017C2.98375 13.7644 4.28386 11.566 6.20417 10C4.28383 8.43346 2.984 6.23437 2.5375 3.79667C2.46812 3.32924 2.50031 2.85235 2.63189 2.3985C2.76348 1.94464 2.99136 1.52449 3.3 1.16667C3.61414 0.801105 4.00346 0.507633 4.44138 0.30629C4.8793 0.104946 5.35551 0.000471907 5.8375 0L14.1667 0C14.6485 0.000426786 15.1247 0.104885 15.5624 0.306236C16.0002 0.507587 16.3894 0.801083 16.7033 1.16667C17.0124 1.52412 17.2407 1.94404 17.3728 2.39777C17.5048 2.85149 17.5374 3.32836 17.4683 3.79583C17.0169 6.23412 15.7142 8.43285 13.7925 10C15.7131 11.5685 17.0143 13.7681 17.4642 16.2067C17.5333 16.6743 17.5007 17.1513 17.3687 17.6052C17.2367 18.059 17.0083 18.4791 16.6992 18.8367C16.3854 19.2011 15.9968 19.4937 15.5597 19.6944C15.1227 19.8952 14.6476 19.9994 14.1667 20ZM14.1667 1.66667H5.8375C5.59577 1.66646 5.35685 1.71848 5.13708 1.81916C4.91731 1.91984 4.72189 2.0668 4.56417 2.25C4.41008 2.42531 4.29628 2.63226 4.23077 2.85628C4.16527 3.0803 4.14964 3.31596 4.185 3.54667C4.4975 5.63 5.78667 7.58 8.01834 9.34417C8.11687 9.42219 8.19648 9.52148 8.25121 9.63462C8.30594 9.74776 8.33437 9.87182 8.33437 9.9975C8.33437 10.1232 8.30594 10.2472 8.25121 10.3604C8.19648 10.4735 8.11687 10.5728 8.01834 10.6508C5.78667 12.4167 4.5 14.3683 4.185 16.4508C4.14926 16.6819 4.1647 16.9181 4.23021 17.1426C4.29573 17.367 4.40973 17.5744 4.56417 17.75C4.72189 17.9332 4.91731 18.0802 5.13708 18.1808C5.35685 18.2815 5.59577 18.3335 5.8375 18.3333H14.1667C14.4084 18.3335 14.6473 18.2815 14.8671 18.1808C15.0869 18.0802 15.2823 17.9332 15.44 17.75C15.594 17.575 15.7078 17.3683 15.7735 17.1446C15.8391 16.9209 15.855 16.6855 15.82 16.455C15.5092 14.3825 14.22 12.4308 11.9867 10.6533C11.8887 10.5753 11.8097 10.4762 11.7553 10.3633C11.701 10.2505 11.6727 10.1269 11.6727 10.0017C11.6727 9.87644 11.701 9.75282 11.7553 9.63999C11.8097 9.52717 11.8887 9.42805 11.9867 9.35C14.2208 7.5725 15.51 5.62083 15.82 3.5475C15.8549 3.31629 15.8386 3.08024 15.7722 2.85604C15.7058 2.63184 15.591 2.42495 15.4358 2.25C15.2786 2.06734 15.0838 1.92069 14.8648 1.82003C14.6458 1.71937 14.4077 1.66706 14.1667 1.66667Z" fill="#00BD7D"/>
</svg>
