<svg width="24" height="24" viewBox="0 0 24 24" fill="none" xmlns="http://www.w3.org/2000/svg">
<path d="M10.4191 14.9041C11.5116 14.4085 12.4014 13.5536 12.9404 12.4819C13.4794 11.4101 13.635 10.1861 13.3815 9.0135C13.128 7.84094 12.4805 6.79057 11.5469 6.03723C10.6132 5.2839 9.44976 4.87303 8.2501 4.87302C7.05044 4.87302 5.88696 5.28387 4.95331 6.0372C4.01967 6.79053 3.37219 7.84089 3.11864 9.01345C2.86509 10.186 3.02077 11.41 3.55975 12.4818C4.09874 13.5536 4.98853 14.4084 6.08102 14.9041C4.10264 15.4194 2.37085 16.619 1.19302 18.29C1.16458 18.3303 1.14435 18.3758 1.1335 18.4239C1.12265 18.4719 1.12138 18.5217 1.12978 18.5703C1.13817 18.6188 1.15606 18.6653 1.18242 18.7069C1.20878 18.7486 1.2431 18.7846 1.2834 18.813C1.32371 18.8414 1.36921 18.8616 1.41732 18.8723C1.46542 18.8831 1.51517 18.8843 1.56374 18.8758C1.6123 18.8673 1.65871 18.8494 1.70032 18.823C1.74193 18.7965 1.77793 18.7622 1.80624 18.7218C2.53301 17.688 3.49786 16.8442 4.61934 16.2617C5.74082 15.6792 6.98599 15.375 8.24972 15.375C9.51345 15.375 10.7586 15.679 11.8802 16.2614C13.0017 16.8438 13.9666 17.6876 14.6934 18.7213C14.7508 18.8024 14.838 18.8574 14.9358 18.8742C15.0337 18.8911 15.1342 18.8684 15.2154 18.8112C15.2966 18.7541 15.3518 18.667 15.3689 18.5692C15.386 18.4714 15.3636 18.3708 15.3067 18.2895C14.1288 16.6188 12.3972 15.4193 10.4191 14.9041ZM3.75004 10.125C3.75004 9.23499 4.01396 8.36496 4.50843 7.62494C5.0029 6.88492 5.7057 6.30814 6.52797 5.96754C7.35024 5.62695 8.25504 5.53784 9.12795 5.71147C10.0009 5.8851 10.8027 6.31369 11.432 6.94302C12.0614 7.57236 12.4899 8.37418 12.6636 9.2471C12.8372 10.12 12.7481 11.0248 12.4075 11.8471C12.0669 12.6693 11.4901 13.3721 10.7501 13.8666C10.0101 14.3611 9.14006 14.625 8.25004 14.625C7.05698 14.6237 5.91317 14.1491 5.06955 13.3055C4.22593 12.4619 3.75139 11.3181 3.75004 10.125ZM22.8587 18.812C22.8184 18.8404 22.7729 18.8606 22.7249 18.8713C22.6768 18.8821 22.6271 18.8834 22.5786 18.8749C22.5301 18.8665 22.4837 18.8486 22.4421 18.8223C22.4005 18.7959 22.3645 18.7616 22.3361 18.7213C21.6084 17.6885 20.6434 16.8454 19.5221 16.2631C18.4008 15.6808 17.1561 15.3762 15.8927 15.375C15.7932 15.375 15.6978 15.3355 15.6275 15.2652C15.5572 15.1948 15.5177 15.0995 15.5177 15C15.5177 14.9005 15.5572 14.8052 15.6275 14.7348C15.6978 14.6645 15.7932 14.625 15.8927 14.625C16.5353 14.6243 17.1703 14.4861 17.7551 14.2194C18.3398 13.9528 18.8606 13.5641 19.2825 13.0793C19.7044 12.5946 20.0176 12.0251 20.201 11.4092C20.3844 10.7933 20.4337 10.1452 20.3457 9.50867C20.2577 8.8721 20.0343 8.26176 19.6907 7.71872C19.3471 7.17569 18.8911 6.71255 18.3535 6.36047C17.8159 6.00839 17.2091 5.77554 16.574 5.67759C15.9389 5.57963 15.2902 5.61885 14.6715 5.79259C14.624 5.80607 14.5744 5.81005 14.5254 5.80431C14.4764 5.79858 14.429 5.78323 14.386 5.75915C14.3429 5.73507 14.305 5.70274 14.2745 5.664C14.244 5.62526 14.2214 5.58088 14.208 5.53339C14.1947 5.48591 14.1908 5.43625 14.1967 5.38728C14.2025 5.3383 14.218 5.29096 14.2422 5.24797C14.2664 5.20498 14.2988 5.16719 14.3376 5.13675C14.3764 5.10632 14.4209 5.08384 14.4684 5.07061C15.7425 4.71139 17.1052 4.84674 18.2837 5.44957C19.4622 6.0524 20.3695 7.07819 20.8238 8.32151C21.2781 9.56483 21.246 10.9339 20.7338 12.1545C20.2216 13.3752 19.2672 14.3572 18.0617 14.9041C20.0399 15.4194 21.7715 16.6188 22.9493 18.2895C23.0066 18.3708 23.0292 18.4715 23.0122 18.5695C22.9952 18.6675 22.94 18.7548 22.8587 18.812Z" fill="#00BD7D"/>
</svg>
